<svg xmlns="http://www.w3.org/2000/svg" xmlns:xlink="http://www.w3.org/1999/xlink" width="500" zoomAndPan="magnify" viewBox="0 0 375 374.999991" height="500" preserveAspectRatio="xMidYMid meet" version="1.0"><defs><filter x="0%" y="0%" width="100%" height="100%" id="6d453424fe"><feColorMatrix values="0 0 0 0 1 0 0 0 0 1 0 0 0 0 1 0 0 0 1 0" color-interpolation-filters="sRGB"/></filter><mask id="72dfa2029f"><g filter="url(#6d453424fe)"><rect x="-37.5" width="450" fill="#000000" y="-37.499999" height="449.999989" fill-opacity="0.88"/></g></mask><clipPath id="90b66cb580"><path d="M 1.101562 0.75 L 247.816406 0.75 L 247.816406 158.25 L 1.101562 158.25 Z M 1.101562 0.75 " clip-rule="nonzero"/></clipPath><clipPath id="1dde4ff4d3"><rect x="0" width="249" y="0" height="159"/></clipPath><clipPath id="1f4a8702d2"><path d="M 21.214844 21.214844 L 353.464844 21.214844 L 353.464844 353.464844 L 21.214844 353.464844 Z M 21.214844 21.214844 " clip-rule="nonzero"/></clipPath><clipPath id="df8074e41f"><path d="M 187.496094 21.214844 C 95.664062 21.214844 21.214844 95.664062 21.214844 187.496094 C 21.214844 279.332031 95.664062 353.78125 187.496094 353.78125 C 279.332031 353.78125 353.78125 279.332031 353.78125 187.496094 C 353.78125 95.664062 279.332031 21.214844 187.496094 21.214844 Z M 187.496094 21.214844 " clip-rule="nonzero"/></clipPath></defs><rect x="-37.5" width="450" fill="#ffffff" y="-37.499999" height="449.999989" fill-opacity="1"/><rect x="-37.5" width="450" fill="#0e2022" y="-37.499999" height="449.999989" fill-opacity="1"/><g mask="url(#72dfa2029f)"><g transform="matrix(1, 0, 0, 1, 63, 108)"><g clip-path="url(#1dde4ff4d3)"><g clip-path="url(#90b66cb580)"><path fill="#ffffff" d="M 118.128906 44.417969 L 99.8125 3.636719 L 68.757812 3.636719 L 1.066406 154.71875 L 110.675781 154.71875 L 110.675781 129.144531 L 43.328125 129.144531 L 70.238281 67.722656 L 84.261719 35.53125 C 88.40625 44.960938 114.96875 113.148438 123.710938 126.183594 L 123.710938 126.328125 C 136.101562 145.140625 157.875 158.175781 190.609375 158.175781 C 212.382812 158.175781 232.378906 151.066406 247.933594 135.859375 L 228.628906 116.207031 C 218.703125 126.132812 203.84375 131.414062 190.660156 131.414062 C 153.332031 131.414062 138.964844 105.347656 138.621094 80.414062 C 138.472656 55.132812 154.125 28.078125 190.660156 28.078125 C 203.890625 28.078125 217.222656 32.519531 227.148438 42.296875 L 246.15625 23.980469 C 230.601562 8.574219 211.101562 0.824219 190.609375 0.824219 C 153.136719 0.824219 129.386719 19.832031 118.128906 44.417969 Z M 118.128906 44.417969 " fill-opacity="1" fill-rule="nonzero"/></g></g></g></g><g clip-path="url(#1f4a8702d2)"><g clip-path="url(#df8074e41f)"><path stroke-linecap="butt" transform="matrix(0.75, 0, 0, 0.75, 21.214791, 21.214787)" fill="none" stroke-linejoin="miter" d="M 221.708418 0.0000758708 C 99.265701 0.0000758708 0.0000698708 99.265707 0.0000698708 221.708424 C 0.0000698708 344.156348 99.265701 443.42198 221.708418 443.42198 C 344.156342 443.42198 443.421974 344.156348 443.421974 221.708424 C 443.421974 99.265707 344.156342 0.0000758708 221.708418 0.0000758708 Z M 221.708418 0.0000758708 " stroke="#e6e8ea" stroke-width="16" stroke-opacity="1" stroke-miterlimit="4"/></g></g></svg>