<svg xmlns="http://www.w3.org/2000/svg" xmlns:xlink="http://www.w3.org/1999/xlink" width="500" zoomAndPan="magnify" viewBox="0 0 375 374.999991" height="500" preserveAspectRatio="xMidYMid meet" version="1.0"><defs><filter x="0%" y="0%" width="100%" height="100%" id="ad428f4fb6"><feColorMatrix values="0 0 0 0 1 0 0 0 0 1 0 0 0 0 1 0 0 0 1 0" color-interpolation-filters="sRGB"/></filter><mask id="78a418b6c7"><g filter="url(#ad428f4fb6)"><rect x="-37.5" width="450" fill="#000000" y="-37.499999" height="449.999989" fill-opacity="0.88"/></g></mask><clipPath id="ebcff767ed"><path d="M 1.101562 0.75 L 247.800781 0.75 L 247.800781 158.25 L 1.101562 158.25 Z M 1.101562 0.75 " clip-rule="nonzero"/></clipPath><clipPath id="fdb913f535"><rect x="0" width="249" y="0" height="159"/></clipPath><clipPath id="84211b4477"><path d="M 21.214844 21.214844 L 353.464844 21.214844 L 353.464844 353.464844 L 21.214844 353.464844 Z M 21.214844 21.214844 " clip-rule="nonzero"/></clipPath><clipPath id="64a9a1576b"><path d="M 187.496094 21.214844 C 95.664062 21.214844 21.214844 95.664062 21.214844 187.496094 C 21.214844 279.332031 95.664062 353.78125 187.496094 353.78125 C 279.332031 353.78125 353.78125 279.332031 353.78125 187.496094 C 353.78125 95.664062 279.332031 21.214844 187.496094 21.214844 Z M 187.496094 21.214844 " clip-rule="nonzero"/></clipPath></defs><rect x="-37.5" width="450" fill="#ffffff" y="-37.499999" height="449.999989" fill-opacity="1"/><rect x="-37.5" width="450" fill="#ffffff" y="-37.499999" height="449.999989" fill-opacity="1"/><g mask="url(#78a418b6c7)"><g transform="matrix(1, 0, 0, 1, 63, 108)"><g clip-path="url(#fdb913f535)"><g clip-path="url(#ebcff767ed)"><path fill="#0e2022" d="M 118.125 44.414062 L 99.804688 3.628906 L 68.746094 3.628906 L 1.050781 154.726562 L 110.667969 154.726562 L 110.667969 129.148438 L 43.316406 129.148438 L 70.230469 67.722656 L 84.25 35.527344 C 88.398438 44.960938 114.964844 113.148438 123.703125 126.1875 L 123.703125 126.335938 C 136.097656 145.148438 157.875 158.183594 190.613281 158.183594 C 212.386719 158.183594 232.386719 151.074219 247.941406 135.863281 L 228.632812 116.210938 C 218.707031 126.136719 203.847656 131.421875 190.660156 131.421875 C 153.332031 131.421875 138.960938 105.347656 138.617188 80.414062 C 138.46875 55.132812 154.121094 28.070312 190.660156 28.070312 C 203.894531 28.070312 217.226562 32.515625 227.152344 42.292969 L 246.164062 23.972656 C 230.609375 8.566406 211.105469 0.816406 190.613281 0.816406 C 153.132812 0.816406 129.382812 19.824219 118.125 44.414062 Z M 118.125 44.414062 " fill-opacity="1" fill-rule="nonzero"/></g></g></g></g><g clip-path="url(#84211b4477)"><g clip-path="url(#64a9a1576b)"><path stroke-linecap="butt" transform="matrix(0.75, 0, 0, 0.75, 21.214791, 21.214787)" fill="none" stroke-linejoin="miter" d="M 221.708418 0.0000758708 C 99.265701 0.0000758708 0.0000698708 99.265707 0.0000698708 221.708424 C 0.0000698708 344.156348 99.265701 443.42198 221.708418 443.42198 C 344.156342 443.42198 443.421974 344.156348 443.421974 221.708424 C 443.421974 99.265707 344.156342 0.0000758708 221.708418 0.0000758708 Z M 221.708418 0.0000758708 " stroke="#0e2022" stroke-width="16" stroke-opacity="1" stroke-miterlimit="4"/></g></g></svg>